<svg xmlns="http://www.w3.org/2000/svg" width="1392" height="1496" preserveAspectRatio="xMidYMid meet" version="1.0" viewBox="0 0 1044 1122"><g fill="#000" stroke="none"><path d="M7654 9463 c0 -10 4 -20 8 -23 11 -9 -24 -35 -47 -36 -11 0 -19 -6 -17 -13 1 -7 -7 -15 -18 -18 -11 -3 -21 -9 -21 -14 -1 -5 -2 -15 -3 -21 -1 -7 -7 -12 -14 -10 -7 1 -12 -3 -12 -9 0 -6 -7 -9 -15 -5 -8 3 -14 2 -14 -2 3 -19 -2 -23 -16 -12 -8 7 -16 9 -16 4 -1 -5 -2 -16 -3 -24 0 -8 -9 -14 -18 -12 -10 1 -25 -9 -34 -23 -13 -20 -19 -23 -25 -13 -7 10 -9 8 -9 -5 0 -10 -4 -16 -9 -13 -5 3 -15 -2 -22 -12 -13 -15 -12 -16 4 -3 11 8 17 9 17 2 0 -6 -11 -13 -25 -17 -14 -3 -23 -10 -20 -14 3 -4 -2 -10 -10 -13 -9 -4 -13 -1 -9 11 2 9 -2 4 -10 -13 -8 -16 -15 -24 -16 -16 0 17 -11 9 -14 -11 -3 -26 -16 -36 -39 -31 -18 4 -19 3 -7 -7 12 -10 11 -11 -8 -7 -16 4 -29 -3 -48 -26 -14 -18 -23 -26 -19 -19 3 6 2 12 -3 12 -6 0 -15 -13 -21 -30 -5 -16 -12 -30 -15 -30 -3 0 -3 8 1 18 3 9 2 14 -2 9 -5 -4 -9 -17 -10 -30 -1 -12 -5 -21 -8 -19 -46 16 -73 1 -41 -23 18 -13 17 -14 -5 -8 -19 5 -22 3 -16 -8 7 -12 6 -12 -7 -1 -12 10 -17 10 -27 -1 -6 -8 -8 -17 -4 -20 6 -7 -12 -11 -30 -8 -4 1 -10 -6 -13 -14 -3 -8 -10 -12 -16 -9 -12 8 -39 -27 -33 -43 2 -7 -2 -13 -10 -13 -8 0 -15 -6 -15 -12 0 -9 -4 -8 -10 2 -8 13 -10 12 -10 -4 0 -13 -5 -16 -16 -12 -14 6 -15 4 -4 -9 7 -9 9 -15 4 -14 -5 1 -12 0 -16 -1 -13 -4 -27 -7 -39 -9 -5 0 -7 -5 -4 -11 3 -5 1 -10 -6 -10 -7 0 -9 -3 -5 -7 4 -4 -8 -13 -26 -19 -18 -6 -32 -16 -31 -22 1 -5 -13 -17 -33 -27 -19 -9 -32 -20 -29 -25 3 -6 -1 -7 -11 -3 -14 5 -15 3 -5 -15 20 -37 14 -62 -14 -62 -24 0 -30 9 -26 38 1 6 -3 12 -9 12 -5 0 -10 -4 -10 -10 0 -5 -6 -10 -14 -10 -8 0 -18 -5 -22 -12 -5 -8 -2 -9 9 -5 10 3 17 4 17 1 0 -2 -12 -9 -26 -14 -16 -7 -23 -14 -18 -22 6 -10 5 -10 -8 -1 -12 11 -18 9 -33 -7 -13 -14 -14 -20 -5 -20 29 0 -7 -16 -44 -19 -5 -1 -3 -8 4 -16 11 -13 6 -15 -36 -17 l-49 -1 60 -7 c33 -4 48 -7 33 -8 -40 -3 -34 -22 6 -22 19 0 36 -5 38 -12 2 -6 22 -11 44 -11 21 0 29 -2 17 -4 -36 -7 -27 -23 13 -23 21 0 33 -4 29 -10 -6 -10 9 -13 50 -11 11 0 14 -2 8 -5 -25 -11 -12 -24 25 -24 27 0 33 -3 22 -10 -12 -8 -12 -10 3 -16 9 -3 24 -3 33 0 14 5 15 4 4 -9 -10 -13 -9 -15 8 -15 11 0 27 -7 36 -15 8 -8 19 -15 25 -15 6 0 11 -4 11 -9 0 -5 11 -12 25 -15 14 -4 25 -11 25 -16 0 -6 9 -10 19 -10 10 0 21 -7 25 -15 3 -8 12 -15 21 -15 8 0 15 -4 15 -10 0 -5 6 -10 14 -10 8 0 16 -7 20 -15 3 -8 11 -15 18 -15 7 0 26 -11 42 -25 16 -14 35 -25 43 -25 7 0 13 -4 13 -10 0 -5 7 -10 16 -10 8 0 12 -5 9 -10 -3 -6 5 -14 18 -19 14 -6 28 -15 32 -21 3 -5 11 -7 17 -4 7 4 8 2 4 -5 -4 -6 0 -14 11 -18 9 -4 29 -18 44 -32 85 -82 130 -121 139 -121 5 0 10 -4 10 -9 0 -5 39 -49 88 -98 98 -101 142 -150 142 -159 0 -3 12 -19 28 -35 15 -17 37 -42 50 -55 12 -14 22 -29 22 -34 0 -6 8 -19 18 -29 40 -44 58 -68 72 -95 8 -17 25 -41 38 -54 12 -14 22 -31 22 -39 0 -7 7 -16 15 -19 8 -4 15 -15 15 -25 0 -10 5 -19 10 -19 6 0 10 -11 10 -25 0 -18 -10 -31 -38 -47 -21 -13 -47 -28 -57 -35 -11 -7 -42 -24 -70 -39 -27 -14 -55 -31 -62 -36 -7 -5 -27 -18 -45 -27 -18 -10 -73 -42 -123 -71 -49 -29 -108 -63 -130 -75 -22 -12 -80 -46 -130 -75 -123 -73 -161 -94 -225 -130 -55 -30 -119 -67 -175 -101 -16 -10 -50 -30 -75 -44 -50 -28 -83 -47 -153 -88 -53 -31 -84 -32 -101 -2 -6 11 -14 22 -17 25 -3 3 -14 20 -24 38 -11 17 -23 32 -27 32 -4 0 -8 6 -8 13 0 7 -8 20 -17 28 -29 26 -63 68 -63 79 0 6 -6 10 -13 10 -8 0 -20 11 -27 25 -7 14 -17 25 -22 25 -13 0 -38 26 -38 39 0 6 -6 11 -13 11 -7 0 -24 12 -39 28 -34 35 -55 52 -67 52 -5 0 -11 3 -13 8 -5 11 -79 66 -113 82 -16 8 -32 18 -35 21 -9 10 -72 39 -85 39 -7 0 -15 7 -19 15 -3 8 -14 15 -25 15 -11 0 -23 5 -26 10 -3 6 -19 10 -36 10 -18 0 -28 5 -27 13 2 7 -10 13 -27 15 -16 2 -34 8 -39 13 -6 5 -27 9 -49 9 -21 0 -36 4 -33 9 9 13 -19 21 -75 21 -27 0 -49 5 -49 10 0 6 -39 10 -97 10 -58 0 -92 4 -85 9 20 12 -20 21 -103 21 -83 0 -123 -9 -103 -21 7 -5 -25 -9 -79 -9 -50 0 -95 -4 -98 -10 -3 -5 -28 -10 -55 -10 -59 0 -88 -9 -68 -21 8 -6 -2 -9 -29 -9 -41 0 -56 -12 -30 -24 6 -3 -5 -4 -26 0 -43 6 -80 -3 -72 -17 4 -5 -6 -9 -20 -9 -20 0 -26 -4 -22 -15 5 -11 0 -13 -21 -9 -15 2 -34 0 -42 -6 -13 -9 -13 -11 0 -20 11 -8 8 -9 -12 -4 -35 8 -60 -6 -32 -18 16 -7 15 -8 -6 -4 -14 2 -34 1 -45 -3 -17 -7 -15 -10 18 -21 40 -15 46 -24 22 -34 -9 -3 -15 0 -15 8 0 8 -12 16 -27 19 -32 6 -51 -2 -32 -14 8 -5 2 -7 -18 -7 -31 1 -63 -20 -63 -41 0 -6 -3 -10 -7 -10 -29 5 -45 -2 -39 -17 4 -12 2 -15 -9 -11 -8 4 -17 2 -20 -3 -4 -6 3 -10 14 -10 16 0 21 -6 21 -25 0 -20 -5 -25 -25 -25 -14 0 -28 0 -32 -1 -19 -2 -11 19 9 25 19 5 21 8 8 16 -11 8 -21 3 -41 -20 -14 -16 -30 -30 -37 -30 -6 0 -13 -9 -17 -19 -3 -11 -15 -23 -25 -26 -24 -7 -37 -45 -20 -55 8 -5 10 -18 6 -36 -9 -33 -22 -44 -53 -44 -12 0 -27 -8 -32 -17 -9 -16 -10 -15 -11 5 0 13 4 21 8 18 9 -6 42 29 42 44 0 6 7 10 15 10 16 0 20 12 8 24 -10 10 -93 -85 -93 -106 0 -10 7 -18 15 -18 8 0 15 -4 15 -10 0 -5 -9 -10 -20 -10 -12 0 -20 7 -20 16 0 12 -5 10 -20 -9 -12 -15 -20 -29 -20 -32 1 -4 -10 -17 -24 -30 -15 -14 -26 -35 -26 -50 0 -14 -4 -24 -9 -20 -5 3 -12 -4 -16 -15 -3 -11 -11 -20 -16 -20 -5 0 -9 -19 -10 -42 0 -33 -2 -38 -9 -23 -9 21 -9 21 -15 -10 -2 -11 -9 -21 -14 -23 -6 -2 -11 -25 -12 -50 0 -32 -3 -41 -8 -28 -7 18 -8 18 -14 2 -4 -10 -7 -27 -7 -38 0 -10 -7 -26 -16 -35 -10 -10 -14 -27 -11 -49 3 -21 1 -32 -7 -31 -6 1 -12 -15 -14 -38 -2 -22 -9 -43 -15 -47 -8 -5 -13 -44 -15 -105 -2 -54 -8 -102 -13 -107 -12 -13 -12 -199 0 -211 5 -6 11 -52 13 -104 2 -64 7 -96 16 -99 7 -2 12 -21 12 -47 0 -24 5 -47 10 -50 6 -3 10 -19 10 -35 0 -16 7 -35 15 -44 8 -8 15 -23 15 -34 0 -11 7 -33 15 -48 8 -16 15 -37 15 -46 0 -10 5 -18 10 -18 6 0 10 -7 10 -16 0 -8 7 -22 15 -30 8 -9 15 -24 15 -35 0 -10 5 -19 10 -19 6 0 10 -11 10 -24 0 -14 21 -55 46 -93 141 -207 294 -349 539 -500 88 -54 277 -127 410 -157 135 -30 190 -36 339 -36 257 0 462 48 686 158 243 120 450 298 595 513 68 102 71 104 114 77 74 -44 210 -124 336 -196 72 -41 148 -85 170 -98 22 -13 59 -33 82 -44 23 -11 45 -24 47 -29 3 -5 25 -19 48 -31 64 -32 103 -55 135 -76 15 -10 42 -25 58 -34 43 -23 92 -52 170 -99 37 -23 69 -41 72 -41 17 0 173 -105 173 -117 0 -8 -21 -47 -47 -86 -27 -40 -50 -76 -52 -82 -2 -5 -29 -44 -59 -85 -136 -186 -309 -373 -478 -519 -109 -95 -287 -231 -302 -231 -5 0 -15 -7 -22 -15 -6 -8 -55 -40 -107 -71 -301 -179 -636 -313 -948 -378 -44 -9 -96 -21 -115 -26 -173 -44 -666 -58 -925 -26 -199 24 -453 80 -598 132 -40 14 -81 28 -92 31 -11 3 -44 16 -73 29 -29 13 -57 24 -63 24 -13 0 -315 148 -349 171 -14 9 -60 39 -103 65 -154 96 -270 180 -357 257 -177 158 -225 206 -314 305 -55 63 -108 124 -116 136 -8 13 -40 57 -72 98 -31 41 -80 112 -109 159 -69 111 -88 132 -106 118 -10 -9 -12 -6 -7 20 4 20 3 31 -5 31 -6 0 -11 9 -11 20 0 11 -7 23 -15 26 -8 4 -15 15 -15 25 0 10 -4 19 -9 19 -5 0 -12 13 -16 30 -4 16 -11 30 -16 30 -5 0 -9 11 -9 25 0 14 -4 25 -10 25 -5 0 -12 11 -16 25 -3 14 -10 25 -15 25 -5 0 -9 11 -9 24 0 14 -5 28 -10 31 -5 3 -10 15 -10 25 0 10 -7 25 -15 34 -8 8 -15 26 -15 41 0 14 -7 28 -15 31 -9 4 -15 19 -15 40 0 19 -4 34 -9 34 -6 0 -11 17 -13 38 -2 23 -8 36 -15 34 -9 -1 -13 13 -13 47 0 27 -5 51 -10 53 -6 2 -12 21 -14 43 -2 24 -7 39 -14 37 -8 -1 -12 20 -12 67 0 53 -4 70 -16 75 -8 3 -14 14 -13 23 4 45 -2 94 -11 88 -6 -4 -10 36 -10 114 0 69 -4 122 -10 126 -6 4 -10 -30 -10 -94 0 -60 -4 -102 -10 -102 -5 -1 -16 -2 -22 -3 -15 -1 -48 -39 -48 -54 0 -6 -5 -14 -12 -18 -8 -5 -9 -2 -5 9 3 10 2 17 -3 17 -6 0 -10 -12 -10 -26 0 -23 -2 -25 -15 -14 -9 7 -18 10 -22 6 -3 -3 0 -6 8 -6 8 -1 3 -8 -11 -16 -14 -8 -17 -13 -7 -10 9 3 17 0 17 -5 0 -7 -11 -9 -26 -6 -18 3 -24 1 -20 -9 3 -7 0 -16 -6 -20 -7 -4 -8 -3 -4 4 4 7 3 12 -2 12 -5 0 -12 -9 -15 -20 -3 -12 -14 -20 -27 -20 -11 0 -18 -4 -15 -10 3 -5 0 -7 -9 -4 -9 3 -17 -3 -21 -16 -4 -13 -12 -19 -21 -16 -17 7 -28 -10 -12 -18 7 -4 3 -4 -9 -2 -13 2 -26 0 -29 -5 -3 -5 1 -9 8 -9 10 0 9 -3 -2 -9 -8 -6 -18 -7 -23 -4 -5 3 -6 -5 -3 -18 3 -13 3 -18 0 -11 -9 19 -21 14 -27 -10 -5 -17 -9 -19 -21 -9 -9 7 -17 8 -20 2 -3 -5 0 -12 6 -14 10 -4 10 -6 0 -6 -7 -1 -11 -5 -7 -10 3 -5 1 -12 -5 -16 -5 -3 -10 -1 -10 4 0 6 -5 11 -10 11 -6 0 -10 -7 -8 -16 2 -10 -12 -26 -33 -40 l-37 -23 5 22 c2 13 -2 8 -11 -11 -8 -18 -21 -31 -28 -30 -7 2 -12 -5 -12 -14 1 -10 -4 -18 -12 -18 -8 0 -11 7 -8 18 5 14 3 14 -11 -3 -9 -11 -21 -19 -26 -17 -5 1 -9 -6 -9 -15 0 -10 -5 -25 -11 -33 -9 -12 -10 -12 -5 3 4 12 2 17 -6 15 -7 -3 -13 -11 -13 -19 0 -8 -7 -14 -15 -14 -8 -1 -14 -6 -13 -13 2 -6 -9 -15 -25 -18 -35 -9 -62 -35 -62 -61 0 -4 -7 2 -15 13 -13 18 -14 18 -8 -6 6 -23 5 -24 -11 -11 -15 12 -17 12 -14 0 2 -8 8 -18 13 -22 6 -5 0 -7 -12 -4 -24 5 -32 -7 -10 -17 6 -3 -1 -4 -16 -1 -23 5 -30 2 -34 -14 -3 -12 -9 -18 -14 -15 -8 5 -13 -10 -10 -30 1 -5 -4 -6 -12 -3 -8 3 -25 -5 -39 -18 -20 -18 -28 -21 -38 -12 -10 10 -10 7 -1 -11 11 -20 9 -22 -11 -22 -30 0 -58 -30 -58 -62 0 -6 -6 -3 -14 8 -8 10 -18 16 -22 11 -4 -4 -3 -7 3 -7 7 0 9 -9 5 -22 -5 -21 -6 -21 -12 -2 -7 17 -9 17 -21 -9 -7 -15 -18 -26 -25 -23 -7 3 -18 -2 -24 -9 -7 -8 -17 -12 -23 -8 -7 4 -8 0 -4 -11 5 -14 3 -17 -8 -12 -8 3 -15 1 -15 -4 0 -6 -7 -10 -16 -10 -8 0 -12 -5 -9 -10 3 -6 -1 -13 -9 -16 -9 -3 -16 -12 -16 -20 0 -21 -41 -45 -57 -32 -7 6 -13 7 -14 2 -4 -45 -22 -68 -47 -59 -6 2 -12 0 -12 -6 0 -6 -7 -8 -16 -5 -8 3 -12 2 -9 -3 3 -5 1 -12 -3 -15 -13 -8 -22 259 -22 638 0 181 -2 332 -5 334 -3 3 -5 -396 -5 -886 0 -588 3 -892 10 -892 6 0 10 -20 10 -45 0 -33 4 -45 15 -45 9 0 15 -9 15 -25 0 -14 5 -25 10 -25 6 0 10 -11 10 -25 0 -14 7 -28 15 -31 10 -4 13 -13 10 -24 -3 -10 2 -32 12 -48 30 -52 77 -117 91 -125 7 -5 10 -12 7 -18 -4 -5 -1 -9 5 -9 6 0 8 -5 5 -10 -6 -10 7 -14 33 -11 13 2 17 -15 5 -22 -5 -2 -3 -2 4 -1 17 4 26 -13 11 -20 -7 -3 -4 -5 7 -4 24 3 77 -31 69 -43 -5 -9 8 -13 32 -10 6 1 23 -10 38 -24 14 -13 44 -30 66 -36 29 -9 40 -18 40 -31 0 -15 5 -18 20 -13 22 7 70 -21 70 -41 0 -8 7 -14 15 -14 8 0 15 -4 15 -9 0 -6 12 -9 27 -8 22 2 28 -2 26 -16 -1 -14 4 -18 19 -14 24 7 68 -19 68 -39 0 -8 9 -14 20 -14 11 0 20 -5 20 -11 0 -7 9 -9 21 -6 16 4 23 0 26 -14 4 -15 12 -19 27 -15 24 6 71 -28 61 -44 -4 -7 2 -9 20 -4 21 5 27 2 31 -14 4 -14 12 -18 25 -15 13 4 19 0 19 -11 0 -10 8 -16 21 -16 29 0 59 -18 59 -36 0 -10 7 -13 25 -8 21 5 25 3 25 -15 0 -16 6 -20 23 -18 13 1 21 -3 19 -10 -1 -7 6 -14 15 -14 45 -3 73 -17 73 -36 0 -10 6 -12 21 -8 15 5 22 2 26 -14 4 -16 11 -20 24 -16 13 4 19 1 19 -9 0 -9 9 -16 20 -16 27 0 72 -29 64 -42 -3 -5 2 -9 12 -8 36 4 46 0 40 -15 -4 -11 1 -15 18 -15 14 0 26 -5 28 -11 2 -6 13 -12 23 -13 32 -4 55 -17 55 -32 0 -8 10 -14 25 -14 16 0 25 -6 25 -15 0 -8 5 -15 10 -15 6 0 10 -8 11 -17 0 -15 2 -15 9 2 8 18 9 18 9 2 1 -10 5 -16 10 -12 6 3 15 -3 21 -12 8 -13 13 -14 16 -6 7 17 44 -2 44 -23 0 -10 7 -13 25 -8 19 5 25 2 25 -10 0 -9 5 -16 10 -16 6 0 10 -8 11 -17 0 -15 2 -15 9 2 7 17 9 17 9 3 1 -10 8 -18 16 -18 8 0 15 -4 15 -10 0 -5 5 -10 11 -10 5 0 7 5 4 10 -4 6 5 5 20 -2 16 -7 24 -17 20 -26 -4 -11 0 -13 16 -9 25 7 69 -19 69 -39 0 -8 9 -14 20 -14 11 0 20 -4 20 -10 0 -5 11 -10 25 -10 16 0 25 -6 25 -16 0 -9 7 -14 18 -13 24 3 72 -22 72 -38 0 -7 6 -13 14 -13 7 0 19 -6 25 -14 7 -8 21 -12 31 -9 14 4 20 0 20 -11 0 -9 8 -16 20 -16 26 0 72 -29 64 -41 -3 -5 4 -9 15 -9 12 0 21 -7 21 -15 0 -11 8 -15 28 -13 17 2 26 -1 24 -9 -1 -7 5 -14 13 -14 42 -4 75 -19 75 -35 0 -11 6 -13 21 -9 15 5 22 2 26 -14 4 -16 11 -20 24 -16 11 4 19 2 19 -4 0 -6 10 -21 22 -33 16 -16 20 -17 15 -5 -3 9 -3 17 1 17 12 -1 57 -39 47 -41 -5 -1 4 -4 20 -8 17 -4 29 -13 27 -20 -2 -9 4 -12 18 -8 12 3 23 -1 28 -10 5 -8 15 -15 23 -17 27 -4 59 -27 59 -42 0 -10 7 -13 25 -8 19 5 25 2 25 -10 0 -14 11 -21 33 -17 4 0 7 -6 7 -15 0 -10 8 -15 23 -13 32 4 70 -19 63 -38 -5 -12 -1 -14 17 -9 24 6 56 -21 58 -47 0 -6 4 -3 9 8 7 17 9 17 9 3 1 -10 7 -18 15 -18 8 0 17 -6 19 -12 4 -10 6 -10 6 0 1 19 41 -5 41 -24 0 -12 6 -15 25 -10 18 5 25 2 25 -8 0 -8 7 -17 16 -20 8 -3 12 -10 9 -16 -4 -6 7 -10 25 -10 22 0 31 -4 27 -13 -4 -10 3 -12 24 -9 22 3 29 0 29 -13 0 -12 6 -16 19 -12 12 3 30 -6 49 -23 17 -15 38 -30 47 -33 9 -4 14 -11 10 -17 -4 -6 6 -7 26 -3 27 5 31 4 26 -10 -5 -13 0 -17 21 -17 30 -1 62 -21 62 -39 0 -6 9 -11 20 -11 11 0 20 -7 20 -15 0 -11 7 -14 25 -9 19 5 25 2 25 -10 0 -9 8 -16 18 -16 30 0 72 -24 67 -38 -3 -9 4 -12 23 -10 21 2 27 -1 25 -15 -1 -15 4 -17 23 -13 17 5 24 2 24 -9 0 -8 6 -16 13 -16 27 -3 33 -5 55 -17 12 -7 20 -17 17 -23 -4 -5 5 -9 19 -9 17 0 26 -5 26 -16 0 -11 6 -15 19 -11 11 2 25 -3 35 -14 8 -10 22 -16 31 -13 10 4 15 0 15 -11 0 -9 7 -16 18 -14 33 3 44 -1 39 -15 -7 -18 44 -29 56 -13 6 9 10 9 14 0 7 -18 434 -18 451 -1 10 10 15 10 20 1 10 -15 62 -4 62 14 0 7 6 13 13 12 28 -3 48 2 42 11 -3 6 3 10 14 10 11 0 26 6 33 13 13 14 21 17 38 17 6 0 10 7 10 15 0 8 9 15 20 15 11 0 30 10 42 22 14 14 23 17 26 10 2 -7 13 -1 26 13 13 14 33 25 45 25 12 0 21 6 21 15 0 9 9 15 25 15 15 0 25 6 25 14 0 14 20 26 55 33 11 2 22 8 23 13 2 6 14 10 27 10 16 0 22 5 21 18 -1 13 5 16 26 14 20 -2 26 1 22 11 -3 9 4 17 18 22 13 4 26 8 31 10 4 1 14 3 22 4 8 0 15 8 15 16 0 8 6 12 14 9 8 -3 19 3 26 16 8 15 17 19 31 15 11 -4 19 -2 19 6 0 19 32 38 63 39 16 0 26 4 22 10 -3 6 2 13 12 16 10 3 26 10 35 15 10 5 24 9 33 9 8 0 12 6 9 13 -5 15 35 37 66 37 11 0 20 7 20 15 0 9 9 15 25 15 14 0 25 5 25 10 0 6 9 10 20 10 11 0 20 6 20 14 0 20 44 46 69 39 15 -4 21 -1 21 11 0 10 9 16 25 16 14 0 25 5 25 10 0 6 9 10 20 10 11 0 20 6 20 14 0 18 39 42 66 40 14 -1 21 4 20 15 -1 12 6 15 27 13 18 -2 26 2 25 10 -2 7 8 14 21 16 26 4 51 24 51 41 0 6 11 11 25 11 16 0 25 6 25 16 0 12 6 15 24 10 16 -4 26 -1 30 9 3 8 15 15 26 15 11 0 20 5 20 10 0 6 7 10 15 10 8 0 15 7 15 15 0 9 9 15 25 15 14 0 25 6 25 13 0 7 10 18 21 26 19 11 21 11 16 -3 -4 -9 -2 -16 3 -16 6 0 10 7 10 15 0 8 7 15 15 15 8 0 15 6 15 13 0 8 4 7 10 -3 6 -10 10 -11 10 -2 0 6 6 12 14 12 8 0 13 8 12 17 -1 14 5 17 26 15 20 -2 26 1 22 11 -3 9 4 17 18 22 13 4 26 8 31 10 4 1 14 3 22 4 8 0 15 8 15 16 0 8 6 12 14 9 8 -3 19 3 25 14 7 14 17 18 31 15 12 -3 20 0 20 7 0 19 32 39 63 40 16 0 26 5 25 12 -2 7 3 13 10 14 6 1 17 2 22 3 6 0 10 8 10 16 0 11 7 14 25 9 19 -5 25 -2 25 10 0 21 36 41 43 23 4 -9 6 -9 6 1 1 6 8 12 16 12 8 0 15 7 15 15 0 9 6 15 13 14 25 -3 37 1 35 13 -2 9 7 12 24 10 21 -2 26 1 22 12 -7 18 32 41 64 37 14 -2 22 3 22 13 0 10 9 16 24 16 13 0 27 7 30 16 4 9 13 14 21 10 9 -3 15 0 15 9 0 16 38 41 57 37 7 -2 17 7 23 18 8 15 17 19 31 15 11 -4 19 -2 19 5 0 6 7 13 16 17 9 3 28 17 42 29 14 13 35 24 47 24 13 0 26 7 29 16 4 10 13 13 25 9 12 -3 21 0 25 10 3 8 12 15 21 15 8 0 15 6 15 13 0 14 45 37 72 37 10 0 18 7 18 16 0 12 6 15 25 10 18 -5 25 -2 25 9 0 9 9 15 25 15 14 0 25 5 25 10 0 6 6 10 14 10 8 0 13 8 12 17 -1 14 5 17 26 15 23 -3 27 0 21 14 -5 14 -1 16 25 12 22 -3 32 0 32 9 0 7 7 13 15 13 8 0 15 7 15 15 0 9 6 12 16 8 10 -4 17 1 21 16 4 16 10 20 29 15 17 -4 24 -2 24 8 0 19 37 41 43 25 4 -9 6 -9 6 1 1 6 10 12 21 12 13 0 18 5 13 16 -4 10 -1 15 8 14 28 -4 39 0 39 15 0 11 7 14 25 9 19 -5 25 -2 25 10 0 21 36 41 43 23 4 -9 6 -9 6 1 1 6 8 12 16 12 8 0 15 7 15 16 0 11 5 14 16 10 11 -4 18 1 21 14 5 17 11 20 34 15 23 -5 28 -4 23 8 -7 19 32 42 64 38 14 -2 22 3 22 13 0 9 3 15 8 15 20 -3 32 2 32 16 0 9 9 15 25 15 15 0 25 6 25 14 0 12 16 21 57 31 7 2 24 15 38 31 19 20 25 23 25 10 0 -14 2 -14 18 1 11 10 17 21 15 26 -2 4 9 15 26 25 17 9 31 23 31 30 0 7 11 17 23 23 13 6 32 28 41 50 10 21 24 39 32 39 8 0 14 3 15 8 3 32 12 58 23 71 8 9 17 26 20 39 4 12 11 22 16 22 5 0 10 10 12 23 2 12 9 21 16 20 8 -2 12 11 12 38 0 32 3 40 15 35 12 -4 13 3 8 39 -4 31 -2 45 6 45 8 0 11 603 11 2350 0 1747 -3 2350 -11 2350 -8 0 -10 14 -6 45 5 35 4 43 -7 39 -18 -7 -28 21 -20 53 5 18 3 24 -4 19 -8 -4 -21 13 -37 48 -14 31 -34 60 -45 66 -10 6 -27 26 -36 46 -16 34 -162 194 -177 194 -14 0 -47 40 -48 58 0 10 -3 12 -6 5 -2 -7 -11 -13 -18 -13 -25 0 -75 35 -75 53 0 9 -4 17 -10 17 -5 0 -10 -4 -10 -10 0 -16 -14 -12 -42 15 -15 14 -31 25 -36 25 -17 0 -72 31 -72 41 0 5 -8 9 -17 9 -26 1 -77 45 -68 60 5 8 0 7 -15 -2 -18 -11 -22 -11 -31 5 -6 9 -17 17 -25 17 -8 0 -19 12 -25 28 -9 24 -11 25 -20 9 -10 -16 -11 -16 -34 0 -14 10 -25 26 -25 37 0 15 -3 16 -15 6 -13 -10 -19 -10 -33 4 -10 9 -24 16 -30 16 -7 0 -12 5 -12 10 0 6 -6 10 -14 10 -27 0 -76 35 -76 54 0 15 -3 16 -14 7 -11 -9 -17 -9 -27 1 -8 7 -32 22 -54 33 -22 11 -41 23 -43 28 -2 4 -12 7 -23 7 -13 0 -19 7 -19 21 0 17 -3 19 -14 10 -10 -9 -16 -8 -26 4 -7 8 -18 15 -25 15 -7 0 -18 7 -25 15 -7 8 -21 15 -31 15 -11 0 -19 4 -19 9 0 5 -10 11 -21 14 -16 4 -20 11 -16 26 4 17 2 18 -12 9 -13 -8 -24 -6 -44 7 -15 9 -27 21 -27 26 0 5 -11 9 -25 9 -14 0 -25 5 -25 10 0 6 -9 10 -20 10 -15 0 -20 7 -20 25 0 23 -2 24 -21 13 -17 -10 -23 -10 -26 0 -3 6 -13 12 -24 12 -10 0 -19 7 -19 15 0 9 -9 15 -25 15 -14 0 -25 5 -25 10 0 6 -9 10 -20 10 -15 0 -20 7 -20 25 0 23 -2 24 -21 13 -17 -10 -23 -10 -26 0 -3 6 -11 12 -19 12 -8 0 -14 7 -14 15 0 10 -10 15 -30 15 -16 0 -30 4 -30 9 0 5 -9 11 -20 14 -12 3 -20 14 -21 29 0 12 -3 17 -6 11 -6 -16 -43 -17 -43 -2 0 7 -12 10 -30 7 -16 -3 -30 -1 -30 4 0 4 7 8 15 8 8 0 15 5 15 10 0 6 -9 10 -20 10 -11 0 -20 4 -20 9 0 5 -12 11 -27 13 -21 2 -28 8 -27 24 0 19 -2 20 -19 10 -15 -8 -21 -8 -24 2 -7 19 -31 14 -29 -5z m-170 -3075 c-8 -65 -34 -321 -34 -344 l0 -24 145 0 c124 0 145 2 145 15 0 18 27 279 36 343 l5 42 127 0 128 0 -21 -200 -21 -200 113 0 113 0 0 -120 0 -120 -125 0 c-112 0 -125 -2 -126 -17 0 -10 -8 -91 -18 -180 l-17 -163 113 0 113 0 0 -120 0 -120 -124 0 -123 0 -6 -37 c-3 -21 -13 -120 -23 -220 l-17 -183 -129 0 c-70 0 -128 1 -128 3 0 2 9 90 20 197 11 107 20 204 20 217 0 23 0 23 -145 23 -112 0 -145 -3 -145 -13 0 -7 -9 -100 -20 -207 -11 -107 -20 -200 -20 -207 0 -10 -30 -13 -130 -13 l-130 0 6 43 c3 23 13 122 23 220 l17 177 -113 0 -113 0 0 120 0 120 124 0 124 0 6 48 c3 26 11 97 16 157 6 61 13 120 16 133 4 22 3 22 -106 22 l-110 0 0 120 0 120 120 0 c66 0 120 3 120 8 0 4 9 90 20 192 11 102 20 188 20 193 0 4 58 7 129 7 l130 0 -5 -32z" transform="translate(0.000000,1122.000000) scale(0.100000,-0.100000)"/><path d="M7407 5623 c-10 -87 -17 -168 -17 -180 0 -23 1 -23 145 -23 131 0 145 2 145 18 0 9 7 78 15 152 8 74 15 147 15 163 l0 27 -143 0 -144 0 -16 -157z" transform="translate(0.000000,1122.000000) scale(0.100000,-0.100000)"/><path d="M9905 5540 c0 -1295 1 -1825 2 -1177 2 647 2 1707 0 2355 -1 647 -2 117 -2 -1178z" transform="translate(0.000000,1122.000000) scale(0.100000,-0.100000)"/></g></svg>